<svg xmlns="http://www.w3.org/2000/svg" viewBox="0 0 1920 396" width="1920" height="396"><defs></defs><g transform="matrix(1,0,0,1,0,0)">
<g>
	<g>
		<g transform="matrix(2.133333333,0,0,1.400654426,-1086.529188468,-334.406783027)">
			<path d="M509.3105570944903,521.8393168324972 C509.3105570944903,521.8393168324972 520.61663848083,497.1152195142024 524.3105570944904,491.1472956023339 C528.0044757081506,485.17937169046536 552.0898230411153,450.510619885554 588.7990580088272,434.221371027724 C625.508292976539,417.932122169894 638.8050264764493,413.27991260512886 668.8050264764493,411.77991260512886 C698.9103194091609,401.27169248326805 758.2904856266433,412.2258902882745 788.1851926939316,418.13410430661963 C818.1851926939316,414.93410735837745 838.4137990228846,387.1519328279613 868.4137990228846,386.85192977620346 C898.4137990228846,386.4519358797191 922.2679654153303,400.1567667401397 950.5678919037325,413.7350485132797 C980.4129334581032,422.53316009995945 1018.732493169947,421.81448416152136 1049.3105570944906,411.55038778552193 C1077.252782176719,395.879497490763 1107.252782176719,389.47950359427864 1139.3105570944906,400.9503816820063 C1169.5697180857478,413.75597815504113 1199.5697180857478,417.75597815504113 1229.3105570944906,406.2503847337641 C1259.3876200692453,391.7716492778119 1298.005362077643,400.00639147194386 1319.3105570944906,410.9503816820063 C1340.6157521113382,421.89437189206876 1387.5255152864647,463.3198192282757 1394.3105570944904,473.1734601297948 C1401.0955989025158,483.0271010313139 1402.274499388347,481.731337109549 1409.3105570944904,494.95735147560185 C1409.3105570944904,494.95735147560185 1409.3105570944906,238.75038473376412 1409.3105570944906,238.75038473376412 C1409.3105570944906,238.75038473376412 1394.3105570944906,238.75038473376412 1394.3105570944906,238.75038473376412 C1379.3105570944906,238.75038473376412 1349.3105570944906,238.75038473376412 1319.3105570944906,238.75038473376412 C1289.3105570944906,238.75038473376412 1259.3105570944906,238.75038473376412 1229.3105570944906,238.75038473376412 C1199.3105570944906,238.75038473376412 1169.3105570944906,238.75038473376412 1139.3105570944906,238.75038473376412 C1109.3105570944906,238.75038473376412 1079.3105570944906,238.75038473376412 1049.3105570944906,238.75038473376412 C1019.3105570944906,238.75038473376412 989.3105570944906,238.75038473376412 959.3105570944906,238.75038473376412 C929.3105570944906,238.75038473376412 899.3105570944906,238.75038473376412 869.3105570944906,238.75038473376412 C839.3105570944906,238.75038473376412 809.3105570944906,238.75038473376412 779.3105570944906,238.75038473376412 C749.3105570944906,238.75038473376412 719.3105570944906,238.75038473376412 689.3105570944906,238.75038473376412 C659.3105570944906,238.75038473376412 629.3105570944906,238.75038473376412 599.3105570944906,238.75038473376412 C569.3105570944906,238.75038473376412 539.3105570944906,238.75038473376412 524.3105570944906,238.75038473376412 C524.3105570944906,238.75038473376412 509.3105570944906,238.75038473376412 509.3105570944906,238.75038473376412 C509.3105570944906,238.75038473376412 509.3105570944903,521.8393168324972 509.3105570944903,521.8393168324972 Z" fill="#6988fa"/>
		</g>
		<g transform="matrix(2.133333333,0,0,1.400654426,-1086.529188468,-334.406783027)">
			<path d="M509.3105570944906,374.7503847337641 C509.3105570944906,374.7503847337641 524.3105570944906,375.55038778552193 524.3105570944906,375.55038778552193 C539.3105570944906,376.4503816820063 569.3105570944906,378.05038778552193 599.3105570944906,378.9503816820063 C629.3105570944906,379.7503847337641 659.3105570944906,379.7503847337641 689.3105570944906,379.9503816820063 C719.3105570944906,380.05038778552193 749.3105570944906,380.4503816820063 779.3105570944906,375.2503847337641 C809.3105570944906,370.05038778552193 839.3105570944906,359.4503816820063 869.3105570944906,359.9503816820063 C899.3105570944906,360.4503816820063 929.3105570944906,372.05038778552193 959.3105570944906,372.05038778552193 C989.3105570944906,372.05038778552193 1019.3105570944906,360.4503816820063 1049.3105570944906,360.2503847337641 C1079.3105570944906,360.05038778552193 1109.3105570944906,371.4503816820063 1139.3105570944906,372.4503816820063 C1169.3105570944906,373.4503816820063 1199.3105570944906,364.05038778552193 1229.3105570944906,364.2503847337641 C1259.3105570944906,364.4503816820063 1289.3105570944906,374.05038778552193 1319.3105570944906,373.55038778552193 C1349.3105570944906,373.05038778552193 1379.3105570944906,362.4503816820063 1394.3105570944906,357.05038778552193 C1394.3105570944906,357.05038778552193 1409.3105570944906,351.7503847337641 1409.3105570944906,351.7503847337641 C1409.3105570944906,351.7503847337641 1409.3105570944906,238.75038473376412 1409.3105570944906,238.75038473376412 C1409.3105570944906,238.75038473376412 1394.3105570944906,238.75038473376412 1394.3105570944906,238.75038473376412 C1379.3105570944906,238.75038473376412 1349.3105570944906,238.75038473376412 1319.3105570944906,238.75038473376412 C1289.3105570944906,238.75038473376412 1259.3105570944906,238.75038473376412 1229.3105570944906,238.75038473376412 C1199.3105570944906,238.75038473376412 1169.3105570944906,238.75038473376412 1139.3105570944906,238.75038473376412 C1109.3105570944906,238.75038473376412 1079.3105570944906,238.75038473376412 1049.3105570944906,238.75038473376412 C1019.3105570944906,238.75038473376412 989.3105570944906,238.75038473376412 959.3105570944906,238.75038473376412 C929.3105570944906,238.75038473376412 899.3105570944906,238.75038473376412 869.3105570944906,238.75038473376412 C839.3105570944906,238.75038473376412 809.3105570944906,238.75038473376412 779.3105570944906,238.75038473376412 C749.3105570944906,238.75038473376412 719.3105570944906,238.75038473376412 689.3105570944906,238.75038473376412 C659.3105570944906,238.75038473376412 629.3105570944906,238.75038473376412 599.3105570944906,238.75038473376412 C569.3105570944906,238.75038473376412 539.3105570944906,238.75038473376412 524.3105570944906,238.75038473376412 C524.3105570944906,238.75038473376412 509.3105570944906,238.75038473376412 509.3105570944906,238.75038473376412 C509.3105570944906,238.75038473376412 509.3105570944906,374.7503847337641 509.3105570944906,374.7503847337641 Z" fill="#506aeb"/>
		</g>
		<g transform="matrix(2.133333333,0,0,1.400654426,-1086.529188468,-334.406783027)">
			<path d="M509.3105570944906,321.7503847337641 C509.3105570944906,321.7503847337641 524.3105570944906,321.4503816820063 524.3105570944906,321.4503816820063 C539.3105570944906,321.05038778552193 569.3105570944906,320.4503816820063 599.3105570944906,319.2503847337641 C629.3105570944906,318.05038778552193 659.3105570944906,316.4503816820063 689.3105570944906,318.55038778552193 C719.3105570944906,320.7503847337641 749.3105570944906,326.7503847337641 779.3105570944906,329.55038778552193 C809.3105570944906,332.4503816820063 839.3105570944906,332.05038778552193 869.3105570944906,333.4503816820063 C899.3105570944906,334.7503847337641 929.3105570944906,337.7503847337641 959.3105570944906,337.7503847337641 C989.3105570944906,337.7503847337641 1019.3105570944906,334.7503847337641 1049.3105570944906,332.05038778552193 C1079.3105570944906,329.4503816820063 1109.3105570944906,327.05038778552193 1139.3105570944906,327.7503847337641 C1169.3105570944906,328.4503816820063 1199.3105570944906,332.05038778552193 1229.3105570944906,329.7503847337641 C1259.3105570944906,327.4503816820063 1289.3105570944906,319.05038778552193 1319.3105570944906,317.2503847337641 C1349.3105570944906,315.4503816820063 1379.3105570944906,320.05038778552193 1394.3105570944906,322.4503816820063 C1394.3105570944906,322.4503816820063 1409.3105570944906,324.7503847337641 1409.3105570944906,324.7503847337641 C1409.3105570944906,324.7503847337641 1409.3105570944906,238.75038473376412 1409.3105570944906,238.75038473376412 C1409.3105570944906,238.75038473376412 1394.3105570944906,238.75038473376412 1394.3105570944906,238.75038473376412 C1379.3105570944906,238.75038473376412 1349.3105570944906,238.75038473376412 1319.3105570944906,238.75038473376412 C1289.3105570944906,238.75038473376412 1259.3105570944906,238.75038473376412 1229.3105570944906,238.75038473376412 C1199.3105570944906,238.75038473376412 1169.3105570944906,238.75038473376412 1139.3105570944906,238.75038473376412 C1109.3105570944906,238.75038473376412 1079.3105570944906,238.75038473376412 1049.3105570944906,238.75038473376412 C1019.3105570944906,238.75038473376412 989.3105570944906,238.75038473376412 959.3105570944906,238.75038473376412 C929.3105570944906,238.75038473376412 899.3105570944906,238.75038473376412 869.3105570944906,238.75038473376412 C839.3105570944906,238.75038473376412 809.3105570944906,238.75038473376412 779.3105570944906,238.75038473376412 C749.3105570944906,238.75038473376412 719.3105570944906,238.75038473376412 689.3105570944906,238.75038473376412 C659.3105570944906,238.75038473376412 629.3105570944906,238.75038473376412 599.3105570944906,238.75038473376412 C569.3105570944906,238.75038473376412 539.3105570944906,238.75038473376412 524.3105570944906,238.75038473376412 C524.3105570944906,238.75038473376412 509.3105570944906,238.75038473376412 509.3105570944906,238.75038473376412 C509.3105570944906,238.75038473376412 509.3105570944906,321.7503847337641 509.3105570944906,321.7503847337641 Z" fill="#394bda"/>
		</g>
		<g transform="matrix(2.133333333,0,0,1.400654426,-1086.529188468,-334.406783027)">
			<path d="M509.3105570944906,282.7503847337641 C509.3105570944906,282.7503847337641 524.3105570944906,280.9503854967036 524.3105570944906,280.9503854967036 C539.3105570944906,279.05038397082467 569.3105570944906,275.4503854967036 599.3105570944906,278.2503847337641 C629.3105570944906,281.05038397082467 659.3105570944906,290.4503854967036 689.3105570944906,292.2503847337641 C719.3105570944906,294.05038397082467 749.3105570944906,288.4503854967036 779.3105570944906,285.4503854967036 C809.3105570944906,282.4503854967036 839.3105570944906,282.05038397082467 869.3105570944906,282.7503847337641 C899.3105570944906,283.4503854967036 929.3105570944906,285.05038397082467 959.3105570944906,284.4503854967036 C989.3105570944906,283.7503847337641 1019.3105570944906,280.7503847337641 1049.3105570944906,282.9503854967036 C1079.3105570944906,285.05038397082467 1109.3105570944906,292.4503854967036 1139.3105570944906,292.9503854967036 C1169.3105570944906,293.4503854967036 1199.3105570944906,287.05038397082467 1229.3105570944906,284.2503847337641 C1259.3105570944906,281.4503854967036 1289.3105570944906,282.05038397082467 1319.3105570944906,281.4503854967036 C1349.3105570944906,280.7503847337641 1379.3105570944906,278.7503847337641 1394.3105570944906,277.7503847337641 C1394.3105570944906,277.7503847337641 1409.3105570944906,276.7503847337641 1409.3105570944906,276.7503847337641 C1409.3105570944906,276.7503847337641 1409.3105570944906,238.75038473376412 1409.3105570944906,238.75038473376412 C1409.3105570944906,238.75038473376412 1394.3105570944906,238.75038473376412 1394.3105570944906,238.75038473376412 C1379.3105570944906,238.75038473376412 1349.3105570944906,238.75038473376412 1319.3105570944906,238.75038473376412 C1289.3105570944906,238.75038473376412 1259.3105570944906,238.75038473376412 1229.3105570944906,238.75038473376412 C1199.3105570944906,238.75038473376412 1169.3105570944906,238.75038473376412 1139.3105570944906,238.75038473376412 C1109.3105570944906,238.75038473376412 1079.3105570944906,238.75038473376412 1049.3105570944906,238.75038473376412 C1019.3105570944906,238.75038473376412 989.3105570944906,238.75038473376412 959.3105570944906,238.75038473376412 C929.3105570944906,238.75038473376412 899.3105570944906,238.75038473376412 869.3105570944906,238.75038473376412 C839.3105570944906,238.75038473376412 809.3105570944906,238.75038473376412 779.3105570944906,238.75038473376412 C749.3105570944906,238.75038473376412 719.3105570944906,238.75038473376412 689.3105570944906,238.75038473376412 C659.3105570944906,238.75038473376412 629.3105570944906,238.75038473376412 599.3105570944906,238.75038473376412 C569.3105570944906,238.75038473376412 539.3105570944906,238.75038473376412 524.3105570944906,238.75038473376412 C524.3105570944906,238.75038473376412 509.3105570944906,238.75038473376412 509.3105570944906,238.75038473376412 C509.3105570944906,238.75038473376412 509.3105570944906,282.7503847337641 509.3105570944906,282.7503847337641 Z" fill="#2429c7"/>
		</g>
		<g transform="matrix(2.133333333,0,0,1.400654426,-1086.529188468,-334.406783027)">
			<path d="M603.2940759857047,419.598616625 C603.2940759857047,419.598616625 603.2940759857047,419.598616625 603.2940759857047,419.598616625" fill="none" stroke="#000000" stroke-width="2"/>
		</g>
	</g>
</g></g></svg>